<?xml version="1.0" standalone="no"?>
<!DOCTYPE svg PUBLIC "-//W3C//DTD SVG 20010904//EN"
 "http://www.w3.org/TR/2001/REC-SVG-20010904/DTD/svg10.dtd">
<svg version="1.0" xmlns="http://www.w3.org/2000/svg"
 width="475.000000pt" height="463.000000pt" viewBox="0 0 475.000000 463.000000"
 preserveAspectRatio="xMidYMid meet">

<g transform="translate(0.000000,463.000000) scale(0.100000,-0.100000)"
fill="#000000" stroke="none">
<path d="M2190 4621 l-55 -6 -43 -155 c-23 -85 -46 -161 -51 -169 -4 -9 -51
-24 -112 -37 -57 -12 -126 -29 -154 -38 -46 -14 -51 -14 -66 2 -9 9 -58 64
-109 122 -51 58 -96 109 -100 114 -18 19 -490 -240 -490 -269 0 -6 23 -78 50
-160 28 -82 50 -152 50 -155 0 -4 -51 -54 -114 -113 l-114 -107 -146 70 c-80
39 -150 70 -155 70 -30 0 -197 -227 -280 -380 l-40 -75 121 -122 122 -122 -50
-146 c-39 -116 -53 -147 -69 -150 -11 -2 -83 -11 -160 -20 -77 -9 -147 -19
-157 -21 -12 -4 -20 -28 -32 -92 -20 -112 -36 -275 -36 -367 l0 -72 144 -41
c79 -23 154 -46 168 -51 22 -8 25 -19 42 -137 30 -203 41 -174 -111 -268 -73
-45 -138 -87 -144 -93 -19 -19 68 -269 155 -441 34 -68 39 -73 64 -68 111 22
324 58 326 55 1 -2 18 -26 36 -54 64 -96 164 -216 176 -211 26 10 434 349 434
361 0 7 -7 18 -15 25 -28 23 -153 216 -198 306 -57 113 -109 261 -139 396 -29
131 -31 381 -4 521 158 813 936 1337 1741 1172 554 -113 1000 -548 1132 -1103
34 -147 43 -412 19 -564 -40 -240 -160 -509 -304 -683 -23 -27 -42 -52 -42
-55 0 -6 209 -181 350 -294 l95 -75 28 32 c15 18 56 72 90 120 34 49 67 95 72
103 8 11 35 8 164 -21 85 -19 160 -35 166 -35 17 0 137 257 180 384 l36 109
-28 23 c-15 13 -79 60 -141 105 -104 74 -114 84 -109 108 3 14 11 64 17 111 6
47 15 100 19 119 l6 34 163 55 c155 51 162 55 162 80 0 111 -41 476 -55 491
-2 1 -79 13 -170 26 -92 13 -168 25 -169 27 -1 1 -12 37 -25 78 -13 41 -34
102 -47 134 l-24 59 121 123 122 123 -63 108 c-52 90 -153 240 -214 316 -13
17 -22 15 -172 -43 l-157 -60 -66 68 c-36 38 -88 87 -115 110 l-49 42 47 162
48 162 -34 27 c-50 42 -179 117 -308 181 l-115 56 -130 -122 -130 -122 -75 23
c-41 13 -110 30 -152 40 l-77 16 -39 164 c-22 90 -42 166 -44 169 -18 18 -343
28 -468 15z m377 -87 c29 -6 30 -7 68 -170 l38 -163 56 -11 c90 -18 170 -39
258 -67 l81 -27 89 81 c48 45 104 97 122 117 19 20 42 36 50 36 19 0 208 -101
281 -150 l58 -40 -44 -147 c-24 -82 -44 -155 -44 -164 0 -9 34 -45 76 -80 42
-35 109 -99 149 -141 l72 -78 153 60 c84 32 157 57 161 55 9 -6 149 -217 183
-277 21 -38 24 -49 14 -60 -7 -8 -60 -62 -117 -120 l-104 -107 43 -111 c23
-61 50 -143 60 -181 10 -39 20 -72 22 -74 2 -2 78 -14 170 -26 l166 -23 13
-85 c7 -47 13 -135 13 -195 l1 -109 -155 -52 -154 -51 -17 -140 c-10 -76 -23
-158 -28 -181 -6 -23 -11 -48 -11 -56 0 -8 61 -58 135 -111 74 -53 135 -104
135 -112 0 -24 -69 -203 -112 -287 -30 -60 -43 -77 -56 -73 -27 8 -291 66
-301 66 -5 0 -42 -49 -81 -109 -39 -60 -77 -115 -84 -121 -11 -8 -42 13 -137
89 -68 55 -139 112 -158 128 l-33 29 56 83 c502 736 295 1726 -459 2198 -156
98 -345 170 -550 210 -140 27 -408 24 -552 -5 -299 -60 -563 -197 -776 -401
-156 -150 -248 -276 -336 -461 -95 -200 -139 -379 -148 -600 -13 -328 83 -643
290 -954 l59 -89 -32 -25 c-18 -14 -89 -72 -159 -128 l-126 -103 -23 27 c-12
15 -53 71 -89 125 -37 53 -71 97 -77 97 -13 0 -280 -47 -313 -55 -19 -4 -27 3
-51 52 -42 84 -124 303 -118 318 2 7 62 47 133 90 70 43 134 83 140 89 10 9 8
39 -12 141 -13 72 -27 164 -30 206 l-7 77 -164 48 -164 48 0 84 c0 86 26 292
38 304 4 3 83 16 177 28 93 11 170 22 170 23 0 1 16 52 34 112 18 61 48 146
66 189 l34 79 -121 124 -122 123 24 43 c30 56 143 223 179 267 l29 34 152 -72
153 -73 91 88 c50 49 120 114 155 144 l64 56 -52 154 c-28 85 -51 157 -51 161
0 17 324 198 354 198 8 0 65 -56 126 -124 l110 -124 93 29 c50 16 142 39 204
51 l111 21 42 151 c23 83 44 159 46 169 5 15 22 17 173 17 93 0 182 -3 198 -6z"/>
<path d="M2328 4033 l-3 -47 -28 42 c-42 64 -57 56 -57 -28 0 -56 3 -70 15
-70 11 0 15 12 15 48 l0 47 31 -47 c40 -61 59 -63 59 -4 0 97 -26 146 -32 59z"/>
<path d="M2440 4036 c0 -24 -3 -58 -6 -75 -5 -24 -3 -31 9 -31 17 0 27 40 27
106 0 32 -4 44 -15 44 -11 0 -15 -12 -15 -44z"/>
<path d="M2496 4024 c-9 -72 -8 -94 8 -94 11 0 16 14 18 48 l4 47 24 -52 c23
-50 46 -68 54 -40 3 6 7 38 9 70 7 70 -15 81 -29 15 l-9 -43 -20 47 c-27 64
-50 64 -59 2z"/>
<path d="M2127 4053 c-11 -20 -29 -134 -22 -141 4 -4 14 3 22 16 17 25 58 30
67 7 3 -8 12 -12 20 -9 12 5 9 17 -17 70 -20 42 -37 64 -49 64 -9 0 -19 -3
-21 -7z m43 -75 c0 -4 -7 -8 -15 -8 -10 0 -15 10 -15 28 1 26 1 26 15 8 8 -11
15 -23 15 -28z"/>
<path d="M2652 4038 c-23 -23 -13 -47 28 -68 41 -21 45 -40 9 -40 -11 0 -22 7
-25 15 -8 19 -34 20 -34 1 0 -19 39 -46 66 -46 22 0 54 28 54 48 0 7 -18 23
-40 37 -23 14 -38 30 -35 35 9 15 35 12 41 -5 7 -18 34 -20 34 -2 0 22 -22 37
-55 37 -17 0 -36 -5 -43 -12z"/>
<path d="M2034 4008 c4 -18 9 -50 13 -70 3 -23 11 -38 19 -38 17 0 17 11 3 83
-8 39 -17 57 -27 57 -11 0 -13 -7 -8 -32z"/>
<path d="M2780 4020 c0 -5 7 -13 17 -18 14 -8 15 -15 5 -55 -15 -59 -15 -67 2
-67 9 0 19 20 27 56 11 51 14 55 36 49 16 -4 23 -1 23 9 0 8 -18 18 -44 25
-55 13 -66 14 -66 1z"/>
<path d="M1899 4013 c-15 -4 -15 -9 1 -71 16 -63 18 -67 44 -65 47 3 76 29 76
66 0 50 -24 77 -68 76 -20 -1 -44 -3 -53 -6z m81 -32 c16 -30 12 -59 -9 -71
-11 -5 -22 -10 -25 -10 -9 0 -27 80 -21 90 10 17 44 11 55 -9z"/>
<path d="M2890 3933 c-16 -52 -18 -68 -8 -74 14 -9 17 -2 42 79 12 43 12 51 1
56 -11 4 -20 -13 -35 -61z"/>
<path d="M1820 3986 c0 -2 7 -23 15 -46 17 -47 14 -47 -45 7 -16 14 -30 19
-39 14 -19 -12 24 -142 44 -135 11 5 11 12 -1 46 -8 22 -14 43 -14 45 0 3 21
-11 46 -32 28 -23 49 -34 55 -28 13 13 -29 133 -47 133 -8 0 -14 -2 -14 -4z"/>
<path d="M2950 3970 c0 -5 3 -10 8 -10 26 -1 32 -17 18 -51 -26 -65 -28 -79
-12 -79 9 0 22 20 33 51 15 43 21 50 40 46 42 -8 30 18 -16 35 -52 20 -71 22
-71 8z"/>
<path d="M1463 3933 c-18 -7 -16 -38 2 -53 14 -11 7 -19 -47 -53 -95 -60 -218
-158 -212 -169 4 -5 11 -5 18 1 15 13 36 -5 36 -31 0 -13 8 -18 26 -18 19 0
25 4 21 14 -3 8 0 20 8 26 11 9 20 5 44 -22 17 -18 31 -27 31 -20 0 13 30 17
30 4 0 -14 -23 -32 -42 -32 -10 0 -18 -4 -18 -10 0 -15 33 -12 58 6 32 22 26
58 -10 62 -17 2 -39 19 -62 47 l-36 43 42 31 c41 30 42 30 55 11 14 -20 10
-40 -8 -40 -6 0 -7 9 -4 21 6 18 4 19 -13 10 -40 -21 -37 -67 5 -77 15 -4 30
-1 42 10 13 12 20 13 29 4 26 -26 22 4 -7 52 -17 28 -31 52 -31 55 0 3 18 14
40 25 40 20 59 11 20 -10 -44 -23 -9 -58 44 -44 21 5 25 3 20 -9 -3 -9 -14
-17 -25 -19 -11 -2 -21 -7 -22 -13 -3 -13 91 -17 98 -5 4 6 -3 10 -15 10 -16
0 -19 5 -15 23 3 12 1 28 -4 36 -8 12 -14 13 -37 3 -33 -16 -45 -7 -17 13 14
10 19 22 16 35 -3 12 0 20 6 20 7 0 10 4 7 9 -3 4 -17 6 -31 4 -18 -4 -27 0
-32 13 -4 10 -2 19 5 22 7 2 12 8 12 13 0 10 -8 10 -27 2z m-46 -224 c-14 -8
-22 -8 -30 0 -8 8 -3 11 19 11 25 -1 27 -2 11 -11z m-113 -15 c7 -19 -1 -34
-19 -34 -18 0 -26 25 -12 39 15 15 24 14 31 -5z"/>
<path d="M1686 3918 c20 -65 50 -117 62 -110 16 11 -35 132 -55 132 -10 0 -12
-7 -7 -22z"/>
<path d="M3064 3877 c-24 -56 -20 -78 17 -98 37 -19 65 -3 89 52 31 73 11 89
-24 20 -41 -80 -84 -61 -52 22 19 51 20 57 4 57 -7 0 -23 -24 -34 -53z"/>
<path d="M3210 3860 c0 -5 7 -13 16 -18 15 -8 14 -14 -10 -54 -29 -49 -32 -68
-13 -68 6 0 23 21 36 46 21 38 28 44 47 40 41 -11 35 12 -10 38 -47 27 -66 32
-66 16z"/>
<path d="M3296 3744 c-21 -31 -36 -57 -34 -58 21 -17 84 -56 90 -56 19 0 5 27
-22 43 -18 11 -27 23 -23 32 7 19 13 19 41 -1 35 -24 49 -5 16 21 -35 28 -25
44 13 24 16 -7 31 -15 36 -17 4 -2 7 2 7 10 0 13 -61 58 -78 58 -5 0 -26 -25
-46 -56z"/>
<path d="M1255 3770 c-8 -13 4 -32 16 -25 12 8 12 35 0 35 -6 0 -13 -4 -16
-10z"/>
<path d="M3483 3669 c-11 -4 -28 -18 -37 -31 -51 -73 37 -151 99 -87 34 36 39
62 15 91 -23 30 -47 38 -77 27z m51 -35 c21 -21 20 -28 -8 -61 -20 -23 -28
-26 -43 -17 -26 16 -28 49 -4 73 25 25 35 26 55 5z"/>
<path d="M3571 3536 c-35 -35 -49 -56 -41 -61 6 -4 19 0 29 9 10 9 21 16 26
16 5 0 16 -7 26 -16 28 -25 45 -6 19 21 -33 35 -14 53 20 20 43 -41 51 -11 9
31 l-35 34 -53 -54z"/>
<path d="M1024 3502 c-109 -126 -130 -154 -107 -150 25 4 63 -28 63 -52 0 -10
-7 -23 -15 -30 -13 -11 -15 -9 -15 13 0 32 -23 51 -54 43 -26 -6 -39 -28 -30
-51 7 -17 30 -20 39 -5 3 6 1 10 -4 10 -6 0 -11 7 -11 15 0 18 12 19 28 3 17
-17 15 -21 -14 -53 -27 -30 -27 -42 3 -27 10 6 30 15 46 21 15 6 33 22 39 36
7 16 17 24 26 20 37 -14 27 10 -19 47 -36 28 -48 43 -40 51 7 7 24 0 57 -26
63 -50 79 -35 19 18 l-49 42 34 41 c18 23 37 42 41 42 20 0 18 -23 -7 -55 -22
-30 -24 -36 -10 -41 25 -10 45 3 39 24 -8 31 16 37 43 11 17 -16 27 -20 35
-12 7 7 -4 23 -36 51 -26 23 -44 45 -41 51 4 5 3 12 -2 15 -5 3 -31 -21 -58
-52z"/>
<path d="M3735 3443 c3 -10 7 -21 8 -24 1 -3 -17 -22 -40 -41 -28 -23 -38 -39
-33 -48 6 -10 20 -3 55 26 42 34 48 36 59 22 7 -9 17 -13 23 -10 8 5 0 22 -24
50 -36 43 -60 56 -48 25z"/>
<path d="M3775 3319 c-22 -16 -44 -34 -48 -38 -9 -9 39 -91 53 -91 18 0 18 15
-2 42 -16 23 -18 32 -8 41 9 9 17 5 34 -17 28 -34 45 -19 21 18 -27 40 -7 52
24 15 15 -18 30 -28 34 -22 8 12 -40 83 -56 83 -7 0 -30 -14 -52 -31z"/>
<path d="M818 3224 c-52 -82 -110 -206 -100 -216 6 -6 14 2 20 22 10 28 13 30
33 19 20 -10 20 -12 6 -21 -47 -26 2 -33 76 -12 29 9 19 26 -12 19 -36 -8 -48
15 -20 39 18 15 22 15 49 1 53 -28 35 7 -20 38 -28 16 -50 30 -50 33 0 3 7 18
15 34 10 19 20 27 30 24 17 -7 20 -20 5 -29 -18 -11 -10 -25 14 -25 38 0 86
12 86 21 0 5 -12 9 -26 9 -25 0 -61 33 -75 69 -4 12 -13 5 -31 -25z m-8 -133
c0 -25 -10 -32 -31 -20 -15 8 -17 14 -9 29 12 23 40 16 40 -9z"/>
<path d="M3843 3210 c-27 -16 -33 -26 -33 -53 0 -38 25 -67 58 -67 30 0 28 18
-4 30 -34 13 -29 49 9 70 26 14 29 14 43 -4 8 -11 12 -28 9 -37 -8 -25 12 -33
24 -10 20 36 -17 91 -61 91 -7 0 -28 -9 -45 -20z"/>
<path d="M725 3170 c-4 -6 -3 -16 3 -22 6 -6 12 -6 17 2 4 6 3 16 -3 22 -6 6
-12 6 -17 -2z"/>
<path d="M3916 3079 c-39 -21 -55 -34 -48 -41 7 -7 17 -6 33 2 19 11 24 10 36
-6 18 -25 16 -33 -12 -46 -14 -6 -25 -15 -25 -19 0 -20 24 -17 79 11 42 21 59
34 55 44 -5 12 -11 13 -31 3 -19 -9 -26 -8 -34 4 -14 23 -11 37 12 44 20 7 22
26 3 31 -5 2 -35 -11 -68 -27z"/>
<path d="M3980 2948 c-65 -25 -67 -25 -54 -38 7 -7 22 -5 47 5 52 22 53 20 14
-28 -50 -62 -38 -76 42 -47 34 13 61 29 61 36 0 17 2 17 -49 -1 l-42 -14 21
29 c12 16 25 32 30 35 15 9 12 45 -2 44 -7 0 -38 -9 -68 -21z"/>
<path d="M650 2860 c0 -5 -11 -10 -24 -10 -38 0 -57 -11 -67 -38 -11 -29 3
-52 32 -52 22 0 23 -2 7 -72 -8 -40 -22 -64 -55 -99 -38 -39 -44 -51 -41 -80
2 -29 7 -34 31 -37 38 -5 35 -35 -8 -68 -19 -14 -35 -33 -35 -42 0 -11 8 -8
30 13 l30 29 0 -85 c0 -46 3 -94 6 -105 4 -17 -2 -26 -30 -44 -20 -12 -34 -26
-30 -31 3 -5 19 0 35 11 34 25 38 16 7 -17 -12 -13 -18 -26 -14 -30 4 -5 14 1
22 11 15 22 19 16 28 -48 6 -47 14 -57 27 -33 6 9 19 17 29 17 11 0 24 9 30
21 11 20 12 20 25 2 7 -10 17 -15 21 -10 4 4 -3 18 -16 32 l-24 26 22 6 c12 3
22 10 22 16 0 6 -23 7 -65 3 -52 -5 -65 -4 -65 7 0 15 41 27 91 27 19 0 29 5
29 15 0 12 -12 13 -65 8 l-65 -6 0 42 c0 22 5 41 10 41 6 0 10 -12 10 -26 0
-25 2 -25 43 -19 56 10 72 38 47 86 -8 15 -7 19 5 19 8 0 15 7 15 15 0 12 -12
13 -65 8 -62 -6 -65 -5 -65 16 0 19 5 21 65 21 37 0 65 4 65 10 0 6 -13 10
-29 10 -54 0 -91 12 -91 29 0 15 8 16 58 10 31 -3 60 -4 65 -2 21 12 1 21 -58
28 -55 6 -65 10 -65 26 0 13 7 19 24 19 13 0 26 -6 29 -12 3 -10 7 -10 20 1
26 21 21 28 -24 35 -32 5 -40 10 -35 22 3 9 6 17 6 19 0 1 27 -3 60 -10 32 -7
62 -10 65 -7 13 14 0 21 -58 32 l-64 12 10 44 c10 43 12 45 41 38 37 -7 51
-18 42 -33 -11 -17 -36 -13 -36 5 0 9 -5 14 -11 12 -6 -2 -10 -7 -10 -11 1 -4
1 -13 1 -21 0 -36 66 -28 76 9 4 15 11 22 20 18 8 -3 14 1 14 9 0 8 -15 18
-32 23 -18 6 -34 18 -36 28 -4 22 16 22 40 0 22 -19 37 -9 22 15 -6 9 -25 18
-42 20 -27 3 -32 -1 -38 -23 -6 -24 -26 -32 -25 -10 3 35 15 75 22 75 5 0 32
-9 61 -20 63 -24 58 -23 58 -7 0 8 -25 22 -55 32 -30 11 -55 25 -55 32 0 7 -4
13 -10 13 -5 0 -10 -4 -10 -10z m-22 -52 c-3 -25 -34 -36 -51 -19 -14 14 9 41
35 41 14 0 19 -6 16 -22z m-63 -277 c-5 -31 -11 -41 -26 -41 -26 0 -25 37 3
67 27 29 32 24 23 -26z m91 -208 c18 -24 17 -53 -1 -53 -8 0 -15 7 -15 16 0 8
-5 12 -11 9 -6 -4 -8 -13 -5 -21 3 -7 1 -16 -4 -19 -6 -4 -10 6 -10 20 0 18
-6 29 -20 32 -11 3 -20 12 -20 19 0 21 70 18 86 -3z m-12 -220 c7 -18 -9 -33
-36 -33 -18 0 -25 30 -11 43 12 13 41 7 47 -10z"/>
<path d="M4005 2795 c-30 -30 -31 -54 -4 -89 40 -51 129 -18 129 48 0 65 -77
90 -125 41z m96 -21 c17 -20 2 -45 -34 -58 -30 -11 -57 6 -57 35 0 36 66 53
91 23z"/>
<path d="M4062 2657 c-41 -8 -51 -13 -48 -26 2 -9 7 -31 11 -48 4 -18 13 -33
20 -33 10 0 11 9 5 34 -9 39 -7 41 64 51 28 5 45 12 43 19 -5 15 -31 16 -95 3z"/>
<path d="M4080 2543 c-42 -15 -54 -79 -20 -113 42 -42 130 -8 130 51 0 52 -53
82 -110 62z m64 -29 c38 -15 8 -74 -38 -74 -16 0 -46 26 -46 40 0 28 48 48 84
34z"/>
<path d="M4070 2370 c-21 -21 -27 -65 -10 -75 5 -3 7 -12 3 -20 -4 -12 3 -15
31 -15 33 0 36 2 36 30 0 17 -4 30 -10 30 -5 0 -10 -7 -10 -16 0 -24 -25 -11
-28 16 -4 27 12 40 50 40 36 0 52 -29 32 -58 -21 -30 -8 -49 17 -26 45 40 9
114 -56 114 -22 0 -43 -8 -55 -20z"/>
<path d="M4150 2220 c-19 -11 -50 -19 -68 -20 -41 0 -39 -23 3 -28 15 -2 45
-14 66 -27 30 -20 38 -21 43 -10 3 10 -6 21 -27 31 l-32 17 33 15 c17 9 32 22
32 29 0 17 -8 16 -50 -7z"/>
<path d="M4037 2019 c-8 -58 6 -82 44 -77 17 3 32 1 35 -4 6 -10 25 -10 41 0
7 5 17 29 22 54 l8 47 -41 6 c-23 3 -55 9 -72 12 -30 5 -31 3 -37 -38z m58
-19 c0 -16 -6 -26 -17 -28 -14 -3 -18 3 -18 28 0 25 4 31 18 28 11 -2 17 -12
17 -28z m57 -6 c-2 -10 -8 -23 -13 -28 -11 -12 -23 19 -15 40 8 22 32 11 28
-12z"/>
<path d="M4026 1897 c-14 -15 -26 -37 -26 -50 0 -35 39 -67 82 -67 42 0 68 25
68 67 0 35 -24 60 -67 69 -26 5 -37 1 -57 -19z m85 -26 c20 -16 22 -23 13 -38
-22 -37 -94 -24 -94 16 0 41 43 53 81 22z"/>
<path d="M700 1844 c-25 -8 -55 -12 -67 -9 l-21 5 20 -73 c11 -39 22 -74 24
-76 2 -2 -8 -17 -21 -33 -30 -35 -31 -49 -7 -78 16 -20 21 -21 41 -11 13 7 24
11 25 9 2 -2 34 -63 71 -135 63 -123 85 -154 85 -119 0 7 7 19 16 27 13 10 17
10 25 -2 6 -10 2 -19 -12 -30 -27 -20 -23 -64 5 -64 11 0 21 6 24 14 3 10 0
12 -12 8 -9 -4 -16 -3 -16 2 0 15 27 31 43 25 10 -3 18 2 22 15 8 26 -1 42
-20 34 -23 -8 -18 25 5 37 22 12 27 30 9 30 -7 0 -33 -13 -60 -30 -27 -16 -51
-25 -54 -20 -9 15 3 28 45 50 21 11 42 25 45 31 15 23 -7 20 -59 -10 l-56 -31
-15 30 c-17 33 -13 50 12 50 10 0 14 -6 10 -20 -3 -11 -1 -22 4 -25 13 -8 63
95 51 107 -6 6 -14 -3 -22 -22 -10 -24 -15 -28 -27 -19 -10 9 -20 9 -37 1 -26
-11 -23 -14 -63 86 -11 26 17 11 32 -18 21 -41 59 -41 80 1 22 42 10 50 -20
14 -24 -29 -25 -29 -40 -11 -22 28 -19 35 20 52 19 8 35 19 35 24 0 14 -13 12
-65 -10 -26 -11 -51 -18 -56 -14 -22 13 -5 31 46 49 30 10 55 24 55 32 0 17 0
17 -60 -7 -65 -25 -67 -25 -74 7 -9 32 11 48 35 27 24 -22 53 14 44 55 -4 20
-3 31 4 31 6 0 11 7 11 15 0 18 -2 18 -60 -1z m18 -36 c22 -22 12 -33 -28 -33
-22 0 -40 3 -40 7 0 5 0 11 -1 16 0 4 10 10 23 14 34 9 33 9 46 -4z m-40 -185
c2 -12 -4 -23 -13 -27 -32 -12 -48 17 -23 42 17 17 32 10 36 -15z"/>
<path d="M3980 1767 c0 -8 17 -21 38 -30 l37 -16 -45 2 c-58 2 -64 -20 -13
-51 37 -22 37 -23 8 -16 -46 10 -50 10 -55 -1 -3 -5 22 -20 55 -32 75 -27 72
-27 78 -2 4 16 -4 27 -41 51 l-47 30 56 -7 c48 -5 57 -4 63 11 8 22 2 28 -54
47 -25 8 -53 18 -62 22 -12 5 -18 2 -18 -8z"/>
<path d="M3915 1590 c-20 -40 -19 -77 4 -89 10 -6 21 -7 25 -4 3 3 15 -2 26
-12 10 -9 26 -15 34 -12 14 6 61 85 54 92 -4 4 -119 55 -124 55 -2 0 -10 -13
-19 -30z m55 -24 c0 -7 -6 -20 -13 -30 -18 -25 -38 -1 -26 31 9 23 39 22 39
-1z m45 -16 c9 -14 -15 -54 -26 -43 -10 10 -1 53 12 53 4 0 11 -4 14 -10z"/>
<path d="M3868 1498 c-4 -8 -2 -20 4 -26 14 -14 -8 -52 -31 -52 -11 0 -21 -6
-24 -14 -4 -11 10 -17 57 -25 34 -6 70 -11 78 -11 34 0 25 30 -26 86 -40 44
-54 54 -58 42z m62 -89 c0 -12 -27 -11 -35 1 -11 17 5 32 21 19 8 -6 14 -15
14 -20z"/>
<path d="M3785 1350 c-4 -6 7 -23 24 -39 17 -16 31 -33 31 -38 1 -17 29 -45
39 -38 8 4 6 16 -4 36 l-16 29 35 0 c21 0 36 6 40 15 4 12 -4 15 -42 15 -27 0
-57 7 -68 15 -23 17 -31 18 -39 5z"/>
<path d="M2357 3498 c-13 -18 -37 -52 -52 -75 -31 -49 -36 -50 -52 -24 -18 29
-112 71 -157 71 l-41 0 0 -62 c-1 -35 -4 -76 -8 -91 l-8 -28 -32 24 c-41 31
-89 47 -138 47 -44 0 -45 -3 -24 -74 8 -27 15 -60 15 -72 l0 -23 -36 24 c-42
29 -108 40 -146 26 -35 -13 -35 -23 1 -69 16 -20 32 -46 35 -58 6 -19 3 -20
-46 -17 -41 3 -60 -1 -86 -17 -49 -30 -50 -45 -4 -89 25 -25 57 -75 87 -138
52 -110 79 -143 136 -168 l40 -18 -29 -31 c-17 -17 -41 -50 -55 -72 -14 -23
-40 -52 -56 -64 -29 -20 -30 -23 -17 -48 23 -44 77 -89 141 -119 75 -34 170
-36 259 -4 l59 21 33 -30 c19 -16 56 -37 84 -47 27 -10 50 -22 50 -28 0 -5 -7
-32 -15 -59 -9 -28 -15 -88 -15 -141 l0 -93 -92 -5 c-51 -3 -115 -10 -143 -16
-27 -5 -90 -10 -140 -11 l-90 -1 -140 -176 c-77 -97 -141 -182 -143 -188 -2
-7 9 -30 23 -51 35 -52 40 -79 21 -109 l-16 -25 334 0 c328 0 336 0 372 -22
52 -31 134 -31 192 0 42 22 50 22 378 22 l335 0 -20 26 c-25 32 -27 83 -5 125
l15 31 -106 178 -106 178 -67 0 c-45 0 -95 9 -152 28 -93 30 -183 35 -259 14
-24 -6 -46 -8 -49 -5 -4 4 -6 50 -6 103 1 69 7 111 20 145 17 44 24 50 79 72
33 14 66 34 74 45 12 18 16 19 30 6 9 -9 46 -23 81 -32 87 -22 179 -15 245 19
53 26 145 116 145 141 0 15 -21 26 -51 26 -30 0 -66 28 -90 69 -12 20 -40 54
-61 77 l-39 41 33 14 c55 22 113 85 170 181 32 55 72 107 100 132 27 23 48 44
48 48 0 4 -14 15 -32 24 -24 12 -49 15 -105 12 -86 -6 -88 -2 -37 72 28 41 33
54 23 61 -28 17 -75 19 -129 5 -30 -8 -56 -14 -56 -13 -1 1 6 32 15 70 l17 68
-23 5 c-31 8 -81 -2 -128 -26 -22 -11 -40 -20 -41 -20 -5 0 9 76 22 118 l12
42 -51 0 c-57 0 -122 -25 -151 -59 -11 -11 -25 -21 -31 -21 -7 0 -29 29 -50
65 -21 36 -46 72 -56 81 -16 14 -19 13 -42 -18z m98 -153 c45 -95 65 -184 65
-289 0 -173 -62 -316 -138 -316 -34 0 -95 66 -117 127 -23 65 -31 216 -15 295
15 79 62 194 101 248 30 41 31 41 50 24 11 -10 35 -50 54 -89z m-261 37 c49
-46 57 -79 36 -142 -50 -149 -44 -297 15 -414 19 -38 34 -70 32 -72 -1 -1 -19
4 -41 11 -54 19 -110 77 -141 147 -45 100 -44 121 11 485 4 30 6 32 32 22 15
-6 40 -22 56 -37z m470 1 c-4 -10 -8 -117 -9 -238 l0 -220 -33 -68 c-34 -68
-86 -117 -124 -117 -24 0 -23 1 17 84 57 118 64 269 20 423 -8 28 -12 59 -9
68 10 25 96 84 123 85 18 0 22 -3 15 -17z m-704 -88 c16 -8 38 -28 49 -44 19
-26 20 -38 14 -137 -6 -121 8 -194 51 -263 24 -37 79 -90 113 -109 30 -18 8
-23 -45 -11 -65 13 -107 42 -154 104 -51 67 -75 149 -83 281 -3 60 -8 128 -11
152 -5 38 -3 42 16 42 11 0 34 -7 50 -15z m870 -19 c0 -56 -44 -327 -61 -370
-36 -98 -98 -163 -171 -180 -36 -8 -35 -1 2 30 72 61 115 221 103 382 -6 81 2
98 67 133 42 22 60 24 60 5z m-1014 -101 c38 -25 51 -55 57 -130 10 -129 75
-248 171 -312 l48 -33 -33 0 c-48 0 -129 41 -167 84 -45 51 -64 93 -107 231
-21 66 -46 134 -57 152 -14 23 -15 32 -6 36 17 5 65 -8 94 -28z m1172 -12
c-25 -51 -49 -113 -68 -183 -39 -136 -129 -251 -210 -266 l-35 -7 42 44 c59
62 99 154 121 279 17 103 18 105 52 122 35 18 105 25 98 11z m-1261 -131 c14
-8 28 -35 43 -84 32 -104 55 -146 114 -202 l51 -49 -52 5 c-90 9 -124 40 -187
171 -29 61 -63 121 -75 131 -11 11 -21 25 -21 32 0 24 78 22 127 -4z m1375 -8
c3 -3 -10 -29 -29 -57 -19 -29 -48 -78 -64 -109 -55 -109 -122 -163 -216 -174
-45 -5 -47 -4 -28 10 80 64 146 148 171 218 19 53 39 76 89 99 41 19 67 23 77
13z m-626 -343 c22 -10 56 -37 76 -60 58 -68 59 -135 3 -179 -38 -30 -75 -35
-127 -17 -34 11 -53 13 -73 5 -38 -14 -101 -12 -133 4 -104 54 -49 215 86 256
48 14 126 10 168 -9z m-336 -93 c-32 -59 -47 -77 -82 -95 -57 -29 -167 -47
-245 -40 -78 8 -91 14 -64 34 11 7 32 33 46 56 33 57 73 93 115 105 19 6 88
11 152 11 l117 1 -39 -72z m730 -9 c25 -29 67 -75 93 -103 43 -45 47 -52 32
-63 -24 -17 -114 -26 -172 -18 -26 4 -75 17 -108 29 l-59 23 -11 59 c-6 32
-21 78 -33 101 -12 23 -22 44 -22 45 0 2 53 -2 118 -8 l117 -12 45 -53z m-750
-139 c0 -22 -4 -40 -10 -40 -11 0 -14 63 -3 73 11 12 13 8 13 -33z m-50 -25
c0 -33 -4 -45 -15 -45 -11 0 -15 11 -15 39 0 33 5 43 28 50 1 1 2 -19 2 -44z
m-50 -20 c0 -33 -4 -45 -15 -45 -11 0 -15 12 -15 45 0 33 4 45 15 45 11 0 15
-12 15 -45z m-52 -4 c2 -20 -2 -37 -9 -42 -21 -12 -29 -1 -29 42 0 33 3 40 18
37 11 -2 18 -14 20 -37z m-168 14 c0 -8 -4 -15 -9 -15 -5 0 -14 7 -21 15 -10
13 -9 15 9 15 12 0 21 -6 21 -15z m60 -16 c0 -24 -3 -30 -16 -25 -9 3 -18 6
-20 6 -2 0 -4 11 -4 25 0 18 5 25 20 25 16 0 20 -7 20 -31z m50 -4 c0 -24 -5
-35 -15 -35 -10 0 -15 11 -15 35 0 24 5 35 15 35 10 0 15 -11 15 -35z m656
-43 c-15 -15 -16 -13 -16 20 0 20 6 38 13 41 18 6 21 -43 3 -61z m-356 32 c0
-22 -2 -25 -15 -14 -8 7 -15 19 -15 26 0 8 7 14 15 14 10 0 15 -10 15 -26z
m468 -14 c3 -30 2 -32 -12 -21 -19 16 -22 65 -3 59 6 -3 13 -20 15 -38z m-408
-10 c0 -31 -3 -38 -15 -34 -9 4 -15 19 -15 40 0 24 5 34 15 34 11 0 15 -11 15
-40z m130 -15 c0 -48 -2 -55 -20 -55 -17 0 -20 7 -20 48 0 51 5 62 27 62 9 0
13 -16 13 -55z m128 13 c-2 -31 -8 -44 -20 -46 -15 -3 -18 4 -18 42 0 40 3 46
21 46 18 0 20 -5 17 -42z m-188 -14 c0 -38 -3 -45 -17 -42 -13 2 -19 15 -21
46 -3 37 -1 42 17 42 18 0 21 -6 21 -46z m130 1 c0 -38 -3 -45 -20 -45 -17 0
-20 7 -20 45 0 38 3 45 20 45 17 0 20 -7 20 -45z m270 9 c0 -15 -6 -24 -15
-24 -10 0 -15 10 -15 30 0 22 4 28 15 24 8 -4 15 -17 15 -30z m220 11 c-13
-16 -40 -20 -40 -7 0 14 12 22 33 22 16 0 17 -3 7 -15z m-160 -20 c0 -16 -6
-25 -15 -25 -9 0 -15 9 -15 25 0 16 6 25 15 25 9 0 15 -9 15 -25z m100 5 c0
-11 -4 -20 -10 -20 -5 0 -10 9 -10 20 0 11 5 20 10 20 6 0 10 -9 10 -20z m-50
-10 c0 -11 -7 -20 -15 -20 -8 0 -15 9 -15 20 0 11 7 20 15 20 8 0 15 -9 15
-20z m-450 -92 c-1 -7 -7 -40 -15 -73 -16 -67 -18 -148 -6 -213 10 -50 2 -59
-30 -34 -53 44 -27 332 31 332 11 0 20 -6 20 -12z m325 -334 c44 -14 109 -28
145 -30 l65 -3 88 -148 88 -148 -42 -3 c-23 -2 -114 9 -202 23 -211 36 -345
33 -425 -9 -30 -15 -56 -25 -59 -22 -3 3 -2 75 2 161 l7 156 32 16 c81 42 186
44 301 7z m-397 -8 l32 -17 -6 -147 c-3 -81 -7 -152 -9 -158 -2 -8 -21 -3 -53
13 -95 47 -237 49 -456 8 -115 -22 -250 -31 -245 -17 2 7 57 79 122 162 l119
150 96 1 c53 0 122 7 152 14 74 18 206 13 248 -9z m-99 -312 c56 -15 99 -39
89 -49 -3 -3 -27 4 -53 16 -72 32 -182 35 -359 10 -202 -29 -321 -37 -330 -22
-5 8 15 11 71 12 43 0 141 11 218 24 168 28 288 31 364 9z m609 -9 c83 -14
179 -26 212 -27 33 -2 60 -6 60 -10 0 -15 -90 -8 -247 18 -198 32 -291 30
-377 -9 -54 -25 -76 -27 -76 -8 0 10 67 40 111 51 63 15 164 10 317 -15z
m-573 -42 c48 -26 38 -28 -30 -7 -70 22 -221 20 -385 -5 -74 -12 -162 -20
-195 -20 -53 1 -46 3 50 15 61 8 151 20 200 28 52 9 139 14 205 13 96 -2 122
-6 155 -24z m600 6 c66 -11 140 -24 165 -29 78 -15 -71 -1 -175 17 -170 29
-268 21 -397 -32 -10 -4 -18 -3 -18 3 0 9 75 45 115 55 49 12 199 5 310 -14z
m-662 -23 c58 -14 87 -30 74 -42 -3 -4 -38 2 -78 11 -89 22 -178 22 -288 1
-47 -9 -127 -15 -185 -15 l-101 1 105 14 c58 7 146 20 195 28 116 18 206 19
278 2z m184 -8 c27 -30 53 -82 53 -107 0 -26 -28 -41 -77 -41 -56 0 -78 19
-70 59 6 31 55 110 68 111 3 0 15 -10 26 -22z m494 -3 c46 -8 114 -15 152 -15
38 0 67 -4 67 -10 0 -15 -91 -12 -195 6 -135 22 -295 20 -375 -5 -78 -25 -75
-25 -60 -7 11 14 78 40 130 50 39 7 189 -3 281 -19z m-681 -37 c45 -11 68 -23
59 -33 -3 -2 -39 2 -80 11 -75 16 -157 15 -354 -5 -83 -8 -205 -3 -205 8 0 3
42 5 92 3 61 -2 131 4 203 17 113 21 197 20 285 -1z m725 -2 c55 -9 116 -18
135 -20 38 -5 -127 1 -312 10 -90 5 -133 3 -193 -11 -79 -17 -103 -15 -65 5
76 41 233 46 435 16z m-739 -38 c35 -6 64 -14 64 -18 0 -4 -142 -8 -315 -9
-255 -2 -315 0 -315 11 0 10 24 12 107 10 60 -2 133 1 163 6 80 14 223 14 296
0z m812 -4 c200 -12 99 -24 -205 -24 -302 0 -351 6 -238 29 48 10 231 8 443
-5z"/>
<path d="M2525 1870 c-4 -6 5 -10 20 -10 15 0 24 4 20 10 -3 6 -12 10 -20 10
-8 0 -17 -4 -20 -10z"/>
<path d="M2460 1860 c-8 -5 -12 -11 -9 -14 7 -8 49 5 49 15 0 12 -21 11 -40
-1z"/>
<path d="M2595 1860 c3 -5 17 -10 31 -10 14 0 22 4 19 10 -3 6 -17 10 -31 10
-14 0 -22 -4 -19 -10z"/>
<path d="M2670 1851 c0 -12 28 -22 35 -12 3 5 -2 12 -11 15 -21 8 -24 8 -24
-3z"/>
<path d="M2735 1840 c-3 -4 2 -11 11 -14 22 -8 34 -7 34 3 0 12 -39 21 -45 11z"/>
<path d="M2815 1830 c-3 -5 3 -10 14 -10 12 0 21 5 21 10 0 6 -6 10 -14 10 -8
0 -18 -4 -21 -10z"/>
<path d="M2470 1810 c-8 -5 -12 -11 -9 -14 8 -8 79 6 79 15 0 12 -51 11 -70
-1z"/>
<path d="M2575 1810 c3 -5 15 -10 26 -10 10 0 19 5 19 10 0 6 -12 10 -26 10
-14 0 -23 -4 -19 -10z"/>
<path d="M2650 1800 c0 -5 12 -10 26 -10 14 0 23 4 19 10 -3 6 -15 10 -26 10
-10 0 -19 -4 -19 -10z"/>
<path d="M2720 1790 c0 -5 14 -10 30 -10 17 0 30 5 30 10 0 6 -13 10 -30 10
-16 0 -30 -4 -30 -10z"/>
<path d="M2810 1780 c0 -5 18 -10 41 -10 24 0 38 4 34 10 -3 6 -22 10 -41 10
-19 0 -34 -4 -34 -10z"/>
<path d="M2552 1773 c-19 -8 -4 -23 24 -23 16 0 24 5 22 13 -5 13 -26 18 -46
10z"/>
<path d="M2488 1763 c-10 -3 -18 -9 -18 -14 0 -12 37 -12 45 0 7 12 -5 19 -27
14z"/>
<path d="M2630 1761 c0 -12 39 -21 45 -11 3 4 -2 11 -11 14 -22 8 -34 7 -34
-3z"/>
<path d="M2702 1749 c5 -17 48 -25 48 -10 0 6 -4 11 -9 11 -5 0 -17 3 -27 7
-12 4 -15 2 -12 -8z"/>
<path d="M2780 1730 c0 -5 14 -10 30 -10 17 0 30 5 30 10 0 6 -13 10 -30 10
-16 0 -30 -4 -30 -10z"/>
<path d="M2870 1731 c0 -13 27 -21 45 -15 25 10 17 24 -15 24 -16 0 -30 -4
-30 -9z"/>
<path d="M2573 1723 c-22 -8 -14 -23 12 -23 16 0 25 6 25 15 0 15 -14 18 -37
8z"/>
<path d="M2491 1709 c-15 -6 -21 -13 -15 -19 13 -13 54 -1 54 16 0 16 -6 16
-39 3z"/>
<path d="M2640 1711 c0 -12 29 -23 41 -15 5 3 7 10 4 15 -8 12 -45 12 -45 0z"/>
<path d="M2715 1702 c-13 -13 -3 -22 25 -22 17 0 30 4 30 9 0 10 -47 21 -55
13z"/>
<path d="M2800 1680 c0 -5 14 -10 30 -10 17 0 30 5 30 10 0 6 -13 10 -30 10
-16 0 -30 -4 -30 -10z"/>
<path d="M2890 1670 c0 -5 6 -10 14 -10 8 0 21 -3 30 -6 11 -4 16 -1 16 10 0
11 -9 16 -30 16 -16 0 -30 -4 -30 -10z"/>
<path d="M2118 1863 c-19 -5 -25 -23 -9 -23 17 0 41 12 41 21 0 9 -4 10 -32 2z"/>
<path d="M2180 1860 c0 -5 9 -10 20 -10 11 0 20 5 20 10 0 6 -9 10 -20 10 -11
0 -20 -4 -20 -10z"/>
<path d="M2246 1861 c-3 -4 6 -13 19 -19 13 -6 27 -8 29 -3 3 4 -6 13 -19 19
-13 6 -27 8 -29 3z"/>
<path d="M2040 1840 c0 -5 9 -10 20 -10 11 0 20 5 20 10 0 6 -9 10 -20 10 -11
0 -20 -4 -20 -10z"/>
<path d="M1898 1828 c9 -9 15 -9 24 0 9 9 7 12 -12 12 -19 0 -21 -3 -12 -12z"/>
<path d="M1960 1830 c0 -5 9 -10 19 -10 11 0 23 5 26 10 4 6 -5 10 -19 10 -14
0 -26 -4 -26 -10z"/>
<path d="M2125 1810 c-4 -6 5 -10 19 -10 14 0 26 5 26 10 0 6 -9 10 -19 10
-11 0 -23 -4 -26 -10z"/>
<path d="M2200 1812 c0 -11 79 -31 85 -22 3 5 -9 13 -27 19 -37 13 -58 14 -58
3z"/>
<path d="M2057 1803 c-14 -13 -6 -20 18 -15 14 2 22 8 19 13 -6 11 -28 12 -37
2z"/>
<path d="M1977 1793 c-14 -13 -6 -20 18 -15 14 2 25 8 25 13 0 10 -34 12 -43
2z"/>
<path d="M1850 1780 c0 -5 18 -10 40 -10 22 0 40 5 40 10 0 6 -18 10 -40 10
-22 0 -40 -4 -40 -10z"/>
<path d="M2080 1760 c-22 -6 -23 -8 -7 -15 11 -4 23 -3 30 4 15 15 7 19 -23
11z"/>
<path d="M2140 1760 c0 -5 14 -10 30 -10 17 0 30 5 30 10 0 6 -13 10 -30 10
-16 0 -30 -4 -30 -10z"/>
<path d="M2225 1751 c-6 -11 33 -26 43 -16 4 3 0 10 -8 15 -19 12 -27 12 -35
1z"/>
<path d="M1990 1740 c0 -5 11 -10 25 -10 14 0 25 5 25 10 0 6 -11 10 -25 10
-14 0 -25 -4 -25 -10z"/>
<path d="M1810 1730 c0 -5 14 -10 30 -10 17 0 30 5 30 10 0 6 -13 10 -30 10
-16 0 -30 -4 -30 -10z"/>
<path d="M1900 1730 c0 -5 14 -10 30 -10 17 0 30 5 30 10 0 6 -13 10 -30 10
-16 0 -30 -4 -30 -10z"/>
<path d="M2068 1713 c-27 -7 -22 -23 7 -23 16 0 25 6 25 15 0 15 -2 16 -32 8z"/>
<path d="M2130 1710 c0 -5 9 -10 19 -10 11 0 23 5 26 10 4 6 -5 10 -19 10 -14
0 -26 -4 -26 -10z"/>
<path d="M2205 1700 c-7 -11 42 -26 53 -16 7 8 -17 26 -35 26 -6 0 -15 -4 -18
-10z"/>
<path d="M1962 1689 c2 -6 7 -10 11 -10 4 1 19 1 33 1 14 0 23 4 19 10 -8 14
-68 13 -63 -1z"/>
<path d="M1775 1680 c-3 -5 0 -13 9 -16 21 -8 61 -1 61 11 0 14 -62 19 -70 5z"/>
<path d="M1870 1680 c0 -5 16 -10 35 -10 19 0 35 5 35 10 0 6 -16 10 -35 10
-19 0 -35 -4 -35 -10z"/>
<path d="M2135 1073 c-379 -25 -791 -123 -1132 -270 -46 -19 -83 -37 -83 -39
0 -3 14 -34 30 -71 17 -36 29 -67 28 -68 -2 -2 -47 -26 -101 -54 -54 -28 -111
-60 -127 -71 l-28 -20 125 -232 c69 -128 126 -235 128 -237 3 -2 62 21 132 52
129 55 346 129 416 142 20 4 37 12 37 17 0 5 -12 55 -26 110 -19 78 -22 103
-13 109 18 11 264 56 414 76 185 24 670 24 845 0 133 -18 369 -63 406 -77 l22
-9 -24 -93 c-32 -127 -33 -124 29 -138 82 -20 295 -95 398 -140 52 -23 103
-44 114 -46 17 -4 38 28 143 224 67 127 122 234 122 239 0 10 -90 64 -187 112
-35 17 -63 36 -63 41 0 6 11 33 25 60 14 27 25 56 25 64 0 23 -248 121 -471
185 -385 111 -807 159 -1184 134z m637 -103 c299 -38 530 -96 808 -203 58 -22
106 -41 108 -43 2 -1 -29 -72 -68 -157 l-72 -155 -35 15 c-67 27 -337 101
-468 127 -219 43 -350 57 -605 63 -416 9 -748 -35 -1148 -153 -67 -20 -124
-35 -126 -33 -18 20 -136 292 -130 299 12 10 205 82 309 114 255 79 515 126
830 150 113 9 449 -5 597 -24z m-1718 -487 c86 -172 137 -296 124 -305 -7 -4
-15 -8 -18 -8 -6 0 -180 347 -180 359 0 5 8 12 18 14 9 3 18 5 19 6 2 0 18
-29 37 -66z m2670 54 c17 -12 12 -25 -70 -190 -82 -163 -103 -193 -119 -168
-6 10 155 370 166 371 3 0 13 -6 23 -13z m-2691 -202 c48 -96 87 -177 87 -179
0 -2 -9 -6 -20 -9 -17 -4 -33 20 -111 170 -90 174 -95 192 -54 193 6 0 50 -79
98 -175z m2769 163 c15 -12 7 -31 -74 -185 -50 -95 -94 -173 -97 -173 -3 0
-12 4 -19 9 -10 6 7 49 75 185 48 97 90 176 93 176 4 0 13 -6 22 -12z m-2848
-194 c79 -150 97 -203 65 -192 -6 2 -51 79 -101 172 -71 132 -87 170 -77 177
8 5 17 9 20 9 3 0 45 -75 93 -166z m2926 145 c0 -16 -174 -339 -183 -339 -24
0 -9 43 70 192 58 111 91 164 100 161 7 -3 13 -9 13 -14z m-2671 -129 c12 0
52 -100 45 -111 -13 -22 -33 -4 -58 52 -31 71 -31 73 -10 65 9 -3 19 -6 23 -6z
m2338 -2 c-43 -105 -51 -118 -68 -118 -11 0 -19 6 -18 13 1 29 38 101 55 108
28 11 37 10 31 -3z m-2226 -45 c13 -35 11 -43 -10 -43 -17 0 -41 42 -41 71 0
17 42 -6 51 -28z m2129 23 c0 -2 -7 -20 -15 -39 -10 -25 -20 -35 -30 -31 -30
12 -8 74 25 74 11 0 20 -2 20 -4z m-2025 -26 c6 -10 -43 -23 -55 -15 -6 4 -10
12 -10 19 0 14 56 10 65 -4z m1935 1 c0 -17 -20 -23 -48 -16 -20 5 -23 8 -11
16 19 12 59 12 59 0z"/>
<path d="M2870 921 c5 -11 15 -23 20 -26 6 -3 10 -14 10 -24 0 -16 -6 -17 -57
-10 -32 4 -59 6 -61 4 -9 -8 10 -25 29 -25 10 0 19 -7 19 -15 0 -8 -9 -15 -20
-15 -13 0 -17 -5 -14 -14 7 -17 -31 -40 -52 -32 -24 9 -15 26 14 26 24 1 25 2
10 14 -13 9 -14 16 -6 24 17 17 1 44 -24 40 -20 -3 -23 -9 -24 -51 -1 -30 4
-53 13 -63 17 -17 54 -19 70 -3 8 8 13 8 17 0 4 -6 18 -11 32 -11 14 0 24 -6
24 -14 0 -7 6 -19 14 -25 12 -10 16 -3 21 42 9 72 16 81 54 72 34 -7 42 -25
11 -25 -12 0 -20 -7 -20 -18 0 -26 28 -62 49 -62 10 0 21 -9 24 -20 9 -37 24
-21 37 41 12 54 15 60 34 55 12 -3 25 -6 29 -6 11 0 -2 -43 -15 -51 -6 -4 -6
-14 1 -28 12 -22 27 -27 33 -11 2 5 13 7 24 4 19 -5 21 -12 18 -44 -3 -32 2
-44 27 -71 l30 -32 -12 29 c-7 16 -16 33 -20 37 -4 5 1 37 11 70 12 45 22 62
34 61 9 -1 16 4 16 12 0 15 -24 22 -214 66 -72 16 -134 32 -138 34 -5 3 -8 13
-8 22 0 10 -7 28 -16 40 -19 28 -39 30 -24 3z m-124 -88 c-10 -10 -19 5 -10
18 6 11 8 11 12 0 2 -7 1 -15 -2 -18z m138 -30 c-8 -31 -22 -44 -43 -40 -20 3
-26 27 -7 27 9 0 16 8 16 20 0 13 7 20 20 20 17 0 19 -4 14 -27z m157 -30 c-5
-19 -15 -29 -30 -31 -32 -5 -50 14 -22 23 12 3 21 13 21 21 0 8 9 14 19 14 16
0 18 -5 12 -27z m167 -18 c1 -1 0 -10 -4 -19 -9 -23 -54 -21 -54 2 0 26 10 33
34 26 12 -4 22 -8 24 -9z"/>
<path d="M2183 881 c-118 -6 -153 -14 -119 -27 9 -3 16 -17 16 -30 0 -31 35
-67 59 -59 13 4 20 -1 24 -15 3 -11 10 -20 16 -20 7 0 11 25 11 65 0 63 1 65
25 65 18 0 25 -5 25 -20 0 -11 -7 -20 -15 -20 -8 0 -15 -6 -15 -12 1 -18 58
-83 66 -75 4 4 -1 17 -12 28 -14 16 -15 23 -6 26 6 3 12 20 12 39 0 30 3 34
26 34 25 0 26 -2 20 -40 -5 -32 -3 -42 10 -47 9 -3 19 0 24 7 12 19 44 7 50
-19 3 -14 11 -26 18 -29 9 -3 12 15 12 62 0 52 3 66 15 66 17 0 21 -46 5 -52
-6 -2 -4 -13 6 -26 12 -17 19 -21 27 -13 18 18 47 13 47 -8 0 -11 6 -22 13
-24 9 -4 9 -6 0 -6 -20 -1 -3 -31 18 -31 10 0 23 -9 29 -21 7 -11 14 -18 18
-15 3 4 -7 19 -22 35 -27 28 -28 33 -21 95 5 51 10 66 23 66 13 0 13 3 4 12
-15 15 -216 19 -409 9z m215 -43 c-2 -15 -11 -24 -25 -26 -19 -3 -23 1 -23 22
0 21 5 26 26 26 21 0 25 -4 22 -22z m142 -3 c0 -20 -5 -25 -25 -25 -20 0 -25
5 -25 25 0 20 5 25 25 25 20 0 25 -5 25 -25z m-380 -10 c0 -24 -31 -51 -44
-38 -3 3 -6 19 -6 35 0 23 4 28 25 28 20 0 25 -5 25 -25z"/>
<path d="M1795 839 c-176 -31 -380 -95 -352 -110 8 -5 34 -2 61 7 59 20 73 11
17 -12 -45 -18 -52 -31 -19 -36 25 -4 37 -28 14 -28 -30 0 -16 -25 19 -36 19
-6 35 -7 35 -3 0 5 -5 9 -10 9 -6 0 -8 10 -4 24 3 13 1 27 -5 31 -12 7 -5 25
9 25 6 0 16 -16 24 -35 8 -19 20 -35 25 -35 14 0 14 4 -6 66 -9 30 -14 57 -10
60 12 12 25 -7 37 -55 7 -32 18 -51 29 -54 17 -4 17 -1 0 59 l-18 63 37 11
c20 5 48 10 60 10 36 0 21 -23 -21 -33 -41 -10 -48 -30 -17 -47 16 -8 20 -8
20 4 0 13 20 26 41 26 5 0 9 -9 9 -19 0 -19 28 -56 36 -48 2 2 -1 30 -7 62 -8
45 -8 60 2 66 20 12 30 0 27 -33 -2 -21 3 -34 16 -42 14 -8 20 -8 23 2 7 17
43 15 43 -3 0 -9 6 -18 14 -21 8 -3 12 -12 9 -20 -3 -9 1 -14 11 -14 9 0 29
-7 44 -16 22 -13 21 -11 -7 15 -28 25 -36 40 -42 88 -6 46 -5 59 7 66 20 11 8
27 -19 26 -12 0 -71 -9 -132 -20z m105 -18 c0 -5 3 -16 6 -25 5 -12 0 -16 -19
-16 -26 0 -45 35 -23 44 19 8 36 6 36 -3z"/>
</g>
</svg>
